<?xml version="1.0" standalone="no"?>
<!DOCTYPE svg PUBLIC "-//W3C//DTD SVG 20010904//EN"
 "http://www.w3.org/TR/2001/REC-SVG-20010904/DTD/svg10.dtd">
<svg version="1.0" xmlns="http://www.w3.org/2000/svg"
 width="300.000000pt" height="60.000000pt" viewBox="0 0 300.000000 60.000000"
 preserveAspectRatio="xMidYMid meet">
<metadata>
Created by potrace 1.10, written by Peter Selinger 2001-2011
</metadata>
<g transform="translate(0.000000,60.000000) scale(0.100000,-0.100000)"
fill="#b88f23" stroke="none">
<path d="M165 561 c-48 -22 -73 -48 -84 -89 -7 -24 -5 -34 8 -46 24 -22 28
-20 23 12 -5 34 35 87 73 96 53 13 125 -44 125 -99 0 -33 -30 -74 -64 -86 -33
-12 -34 -13 -16 -26 17 -12 24 -11 50 2 58 30 78 120 40 182 -17 28 -84 73
-107 73 -4 0 -26 -9 -48 -19z"/>
<path d="M617 466 c-162 -59 -153 -281 13 -326 66 -18 150 13 150 55 l0 24
-36 -24 c-44 -30 -87 -32 -133 -7 -127 68 -66 264 77 249 27 -3 53 -14 68 -28
l26 -24 -4 30 c-5 49 -92 76 -161 51z"/>
<path d="M916 466 c-164 -60 -150 -288 20 -326 117 -27 230 79 208 195 -19
101 -132 166 -228 131z m125 -49 c46 -30 73 -87 64 -134 -8 -42 -59 -99 -98
-109 -114 -28 -208 102 -147 201 39 63 121 82 181 42z"/>
<path d="M1291 468 c-81 -23 -124 -80 -124 -164 0 -98 73 -168 174 -167 198 3
233 279 41 333 -43 11 -46 11 -91 -2z m105 -44 c18 -9 43 -31 54 -49 71 -115
-62 -255 -177 -185 -90 55 -93 168 -4 227 40 27 80 29 127 7z"/>
<path d="M1868 310 c3 -163 4 -170 23 -170 20 0 21 5 17 125 l-3 124 86 -92
c47 -50 101 -109 120 -130 l34 -38 0 170 c0 155 -2 171 -17 171 -15 0 -18 -14
-20 -123 l-3 -123 -115 127 c-63 71 -117 128 -120 129 -3 0 -4 -76 -2 -170z"/>
<path d="M2330 466 c0 -7 -31 -84 -69 -170 -66 -150 -68 -156 -46 -156 19 0
26 10 41 50 l18 50 67 0 66 0 21 -50 c16 -38 26 -50 42 -50 12 0 20 4 18 8 -1
5 -34 81 -73 170 -64 148 -85 185 -85 148z m38 -129 c12 -28 22 -54 22 -57 0
-3 -23 -5 -50 -5 -28 0 -49 2 -47 5 1 3 11 29 22 58 11 28 22 52 25 52 3 0 15
-24 28 -53z"/>
<path d="M1550 305 l0 -165 80 0 c73 0 80 2 80 20 0 18 -7 20 -60 20 l-60 0 0
145 c0 138 -1 145 -20 145 -19 0 -20 -7 -20 -165z"/>
<path d="M1770 305 c0 -158 1 -165 20 -165 19 0 20 7 20 165 0 158 -1 165 -20
165 -19 0 -20 -7 -20 -165z"/>
<path d="M2530 305 c0 -160 1 -165 21 -165 19 0 20 5 17 80 -2 44 -1 80 2 80
3 0 32 -36 64 -80 45 -60 66 -80 83 -80 13 0 23 2 23 5 0 3 -27 38 -61 78
l-61 72 33 7 c42 8 59 32 59 80 0 63 -33 88 -115 88 l-65 0 0 -165z m132 119
c13 -8 10 -70 -4 -82 -7 -5 -30 -12 -50 -14 l-38 -4 0 59 0 60 42 -7 c22 -4
45 -9 50 -12z"/>
<path d="M2767 383 l56 -87 -2 -78 c-2 -73 -1 -78 18 -78 19 0 21 6 21 75 0
74 1 76 55 160 30 47 55 88 55 90 0 3 -9 5 -20 5 -12 0 -29 -16 -46 -42 -14
-24 -34 -56 -44 -72 l-18 -29 -42 72 c-33 56 -47 71 -66 71 -22 0 -21 -5 33
-87z"/>
<path d="M90 364 c-55 -47 -78 -118 -59 -188 15 -54 81 -120 135 -135 75 -20
171 25 208 97 25 50 28 83 10 103 -25 28 -33 23 -28 -13 6 -43 -21 -96 -65
-125 -44 -30 -113 -31 -159 -3 -34 21 -71 87 -72 128 0 53 62 132 105 132 23
0 18 17 -7 24 -33 8 -34 8 -68 -20z"/>
</g>
</svg>
